<svg viewBox="0 0 142 32" fill="none" xmlns="http://www.w3.org/2000/svg"><path d="M52.599 23V8.455h2.635V20.79h6.406V23h-9.041Zm11.214 0V12.09h2.571V23h-2.57Zm1.293-12.457a1.5 1.5 0 0 1-1.051-.405 1.305 1.305 0 0 1-.44-.987c0-.389.146-.718.44-.988a1.485 1.485 0 0 1 1.05-.412c.413 0 .763.138 1.052.412.294.27.44.6.44.988 0 .383-.146.712-.44.987-.289.27-.64.405-1.051.405ZM69.142 23V8.455h2.57v5.44h.107a4.73 4.73 0 0 1 .561-.845c.242-.303.569-.561.98-.774.412-.218.938-.327 1.577-.327.843 0 1.603.215 2.28.646.682.426 1.222 1.058 1.62 1.896.402.834.603 1.857.603 3.069 0 1.198-.197 2.216-.59 3.054-.392.838-.927 1.477-1.605 1.917-.677.44-1.444.66-2.3.66-.626 0-1.144-.103-1.556-.312a3.166 3.166 0 0 1-.995-.753 4.879 4.879 0 0 1-.575-.845h-.149V23h-2.528Zm2.521-5.454c0 .705.1 1.323.298 1.853.204.53.495.945.874 1.243.383.294.847.44 1.392.44.568 0 1.044-.151 1.427-.454.384-.308.673-.727.867-1.257.199-.535.298-1.144.298-1.825 0-.678-.097-1.279-.29-1.804-.195-.526-.484-.938-.867-1.236-.384-.299-.862-.448-1.435-.448-.55 0-1.016.145-1.4.434-.383.288-.674.693-.873 1.214-.194.52-.291 1.134-.291 1.84Zm16.916.866V12.09h2.57V23h-2.492v-1.939h-.114a3.28 3.28 0 0 1-1.214 1.499c-.559.388-1.248.582-2.067.582-.715 0-1.347-.159-1.896-.476-.545-.322-.97-.788-1.279-1.399-.307-.616-.461-1.359-.461-2.23V12.09h2.57v6.548c0 .692.19 1.24.569 1.648.379.407.876.61 1.491.61.38 0 .746-.092 1.101-.276.355-.185.647-.46.874-.824.232-.37.348-.831.348-1.385ZM93.907 23V8.455h5.455c1.117 0 2.055.194 2.812.582.763.388 1.338.933 1.726 1.633.393.697.59 1.508.59 2.437 0 .932-.199 1.742-.597 2.429-.393.681-.973 1.21-1.74 1.583-.767.37-1.709.554-2.827.554h-3.885v-2.187h3.53c.654 0 1.189-.09 1.605-.27.417-.185.725-.452.924-.803.203-.355.305-.79.305-1.306 0-.517-.102-.957-.305-1.321a1.945 1.945 0 0 0-.931-.839c-.416-.194-.954-.29-1.612-.29h-2.415V23h-2.635Zm7.515-6.59 3.6 6.59h-2.94l-3.537-6.59h2.877Zm12.333 2.002V12.09h2.571V23h-2.493v-1.939h-.114a3.281 3.281 0 0 1-1.214 1.499c-.559.388-1.248.582-2.067.582-.715 0-1.347-.159-1.896-.476-.545-.322-.971-.788-1.279-1.399-.308-.616-.462-1.359-.462-2.23V12.09h2.572v6.548c0 .692.189 1.24.568 1.648.378.407.876.61 1.491.61.379 0 .746-.092 1.101-.276.355-.185.646-.46.874-.824.232-.37.348-.831.348-1.385Zm7.785-1.804V23h-2.571V12.09h2.458v1.855h.128a3.12 3.12 0 0 1 1.2-1.456c.554-.36 1.238-.54 2.053-.54.752 0 1.408.16 1.967.483.563.322.999.788 1.307 1.399.312.61.466 1.352.461 2.223V23h-2.571v-6.548c0-.73-.189-1.3-.568-1.712-.374-.412-.892-.618-1.555-.618-.45 0-.85.1-1.201.299a2.071 2.071 0 0 0-.816.845c-.194.369-.292.816-.292 1.342Z" fill="#101828"/><rect x=".5" y="4.5" width="44" height="23" rx="11.5" fill="#84ADFF" stroke="#155EEF"/><circle cx="22" cy="16" r="15" fill="#155EEF"/></svg>
