<svg width="142" height="32" viewBox="0 0 142 32" fill="none" xmlns="http://www.w3.org/2000/svg">
<path d="M52.5987 23V8.45455H55.2337V20.7912H61.6399V23H52.5987ZM63.8132 23V12.0909H66.3842V23H63.8132ZM65.1058 10.5426C64.6986 10.5426 64.3482 10.4077 64.0547 10.1378C63.7611 9.86316 63.6143 9.53409 63.6143 9.15057C63.6143 8.76231 63.7611 8.43324 64.0547 8.16335C64.3482 7.88873 64.6986 7.75142 65.1058 7.75142C65.5178 7.75142 65.8681 7.88873 66.157 8.16335C66.4505 8.43324 66.5973 8.76231 66.5973 9.15057C66.5973 9.53409 66.4505 9.86316 66.157 10.1378C65.8681 10.4077 65.5178 10.5426 65.1058 10.5426ZM69.1417 23V8.45455H71.7127V13.8949H71.8192C71.9518 13.6297 72.1388 13.348 72.3803 13.0497C72.6218 12.7467 72.9485 12.4886 73.3604 12.2756C73.7724 12.0578 74.2979 11.9489 74.9371 11.9489C75.7799 11.9489 76.5399 12.1643 77.217 12.5952C77.8988 13.0213 78.4386 13.6534 78.8363 14.4915C79.2388 15.3248 79.44 16.3475 79.44 17.5597C79.44 18.7576 79.2435 19.7756 78.8505 20.6136C78.4575 21.4517 77.9225 22.0909 77.2454 22.5312C76.5683 22.9716 75.8013 23.1918 74.9442 23.1918C74.3192 23.1918 73.8008 23.0876 73.3888 22.8793C72.9769 22.6709 72.6455 22.42 72.3945 22.1264C72.1483 21.8281 71.9566 21.5464 71.8192 21.2812H71.6701V23H69.1417ZM71.663 17.5455C71.663 18.2509 71.7624 18.8688 71.9613 19.3991C72.1649 19.9295 72.4561 20.3437 72.8349 20.642C73.2184 20.9356 73.6824 21.0824 74.2269 21.0824C74.7951 21.0824 75.271 20.9309 75.6545 20.6278C76.038 20.3201 76.3268 19.901 76.521 19.3707C76.7198 18.8357 76.8192 18.2273 76.8192 17.5455C76.8192 16.8684 76.7222 16.267 76.5281 15.7415C76.3339 15.2159 76.0451 14.804 75.6616 14.5057C75.2781 14.2074 74.7998 14.0582 74.2269 14.0582C73.6777 14.0582 73.2113 14.2027 72.8278 14.4915C72.4442 14.7803 72.1531 15.1851 71.9542 15.706C71.7601 16.2268 71.663 16.84 71.663 17.5455ZM88.5788 18.4119V12.0909H91.1499V23H88.657V21.0611H88.5433C88.2971 21.6719 87.8923 22.1714 87.3288 22.5597C86.7701 22.9479 86.0812 23.142 85.2621 23.142C84.5471 23.142 83.915 22.9834 83.3658 22.6662C82.8213 22.3442 82.3951 21.8778 82.0874 21.267C81.7796 20.6515 81.6257 19.9081 81.6257 19.0369V12.0909H84.1967V18.6392C84.1967 19.3305 84.3861 19.8797 84.7649 20.2869C85.1437 20.6941 85.6409 20.8977 86.2564 20.8977C86.6352 20.8977 87.0021 20.8054 87.3572 20.6207C87.7124 20.4361 88.0036 20.1615 88.2308 19.7969C88.4628 19.4276 88.5788 18.9659 88.5788 18.4119ZM93.9073 23V8.45455H99.3619C100.479 8.45455 101.417 8.64867 102.174 9.03693C102.937 9.42519 103.512 9.9697 103.9 10.6705C104.293 11.3665 104.49 12.1785 104.49 13.1065C104.49 14.0393 104.291 14.849 103.893 15.5355C103.5 16.2173 102.92 16.7453 102.153 17.1193C101.386 17.4886 100.444 17.6733 99.3263 17.6733H95.4414V15.4858H98.9712C99.6246 15.4858 100.16 15.3958 100.576 15.2159C100.993 15.0312 101.301 14.7637 101.5 14.4134C101.703 14.0582 101.805 13.6226 101.805 13.1065C101.805 12.5904 101.703 12.1501 101.5 11.7855C101.296 11.4162 100.986 11.1368 100.569 10.9474C100.153 10.7533 99.6152 10.6562 98.957 10.6562H96.5423V23H93.9073ZM101.422 16.4091L105.022 23H102.082L98.5451 16.4091H101.422ZM113.755 18.4119V12.0909H116.326V23H113.833V21.0611H113.719C113.473 21.6719 113.068 22.1714 112.505 22.5597C111.946 22.9479 111.257 23.142 110.438 23.142C109.723 23.142 109.091 22.9834 108.542 22.6662C107.997 22.3442 107.571 21.8778 107.263 21.267C106.955 20.6515 106.801 19.9081 106.801 19.0369V12.0909H109.373V18.6392C109.373 19.3305 109.562 19.8797 109.941 20.2869C110.319 20.6941 110.817 20.8977 111.432 20.8977C111.811 20.8977 112.178 20.8054 112.533 20.6207C112.888 20.4361 113.179 20.1615 113.407 19.7969C113.639 19.4276 113.755 18.9659 113.755 18.4119ZM121.54 16.608V23H118.969V12.0909H121.427V13.9446H121.555C121.806 13.3338 122.206 12.8485 122.755 12.4886C123.309 12.1288 123.993 11.9489 124.808 11.9489C125.56 11.9489 126.216 12.1098 126.775 12.4318C127.338 12.7538 127.774 13.2202 128.082 13.831C128.394 14.4418 128.548 15.1828 128.543 16.054V23H125.972V16.4517C125.972 15.7225 125.783 15.152 125.404 14.7401C125.03 14.3281 124.512 14.1222 123.849 14.1222C123.399 14.1222 122.999 14.2216 122.648 14.4205C122.303 14.6146 122.031 14.8963 121.832 15.2656C121.638 15.6349 121.54 16.0824 121.54 16.608Z" fill="#101828"/>
<rect x="0.5" y="4.5" width="44" height="23" rx="11.5" fill="#84ADFF" stroke="#155EEF"/>
<circle cx="22" cy="16" r="15" fill="#155EEF"/>
</svg>
