<svg viewBox="0 0 180 136" fill="none" xmlns="http://www.w3.org/2000/svg"><circle cx="90" cy="64" r="64" fill="#B2CCFF"/><circle cx="24" cy="20" r="6" fill="#D1E0FF"/><circle cx="21" cy="112" r="8" fill="#D1E0FF"/><circle cx="164" cy="36" r="8" fill="#D1E0FF"/><circle cx="153" cy="9" r="5" fill="#D1E0FF"/><g filter="url(#a)"><path fill-rule="evenodd" clip-rule="evenodd" d="M92 16c-13.466 0-25.378 6.654-32.627 16.854A32.093 32.093 0 0 0 52 32c-17.673 0-32 14.327-32 32 0 17.673 14.327 32 32 32h80c15.464 0 28-12.536 28-28s-12.536-28-28-28a28.33 28.33 0 0 0-3.248.186C122.623 25.96 108.475 16 92 16Z" fill="#EFF4FF"/><circle cx="52" cy="64" r="32" fill="url(#b)"/><circle cx="92" cy="56" r="40" fill="url(#c)"/><circle cx="132" cy="68" r="28" fill="url(#d)"/></g><g filter="url(#e)"><rect x="62" y="60" width="56" height="56" rx="28" fill="#6941C6" fill-opacity=".4"/><path d="m100.5 98.5-4.083-4.083m2.916-7c0 5.477-4.44 9.916-9.916 9.916-5.477 0-9.917-4.44-9.917-9.916 0-5.477 4.44-9.917 9.917-9.917 5.477 0 9.916 4.44 9.916 9.917Z" stroke="#fff" stroke-width="2" stroke-linecap="round" stroke-linejoin="round"/></g><defs><linearGradient id="b" x1="27.429" y1="42.857" x2="84" y2="96" gradientUnits="userSpaceOnUse"><stop stop-color="#E9D7FE"/><stop offset=".351" stop-color="#fff" stop-opacity="0"/></linearGradient><linearGradient id="c" x1="61.286" y1="29.571" x2="132" y2="96" gradientUnits="userSpaceOnUse"><stop stop-color="#E9D7FE"/><stop offset=".351" stop-color="#fff" stop-opacity="0"/></linearGradient><linearGradient id="d" x1="110.5" y1="49.5" x2="160" y2="96" gradientUnits="userSpaceOnUse"><stop stop-color="#E9D7FE"/><stop offset=".351" stop-color="#fff" stop-opacity="0"/></linearGradient><filter id="a" x="0" y="16" width="180" height="120" filterUnits="userSpaceOnUse" color-interpolation-filters="sRGB"><feFlood flood-opacity="0" result="BackgroundImageFix"/><feColorMatrix in="SourceAlpha" values="0 0 0 0 0 0 0 0 0 0 0 0 0 0 0 0 0 0 127 0" result="hardAlpha"/><feMorphology radius="4" in="SourceAlpha" result="effect1_dropShadow_1182_2296"/><feOffset dy="8"/><feGaussianBlur stdDeviation="4"/><feColorMatrix values="0 0 0 0 0.0627451 0 0 0 0 0.0941176 0 0 0 0 0.156863 0 0 0 0.03 0"/><feBlend in2="BackgroundImageFix" result="effect1_dropShadow_1182_2296"/><feColorMatrix in="SourceAlpha" values="0 0 0 0 0 0 0 0 0 0 0 0 0 0 0 0 0 0 127 0" result="hardAlpha"/><feMorphology radius="4" in="SourceAlpha" result="effect2_dropShadow_1182_2296"/><feOffset dy="20"/><feGaussianBlur stdDeviation="12"/><feColorMatrix values="0 0 0 0 0.0627451 0 0 0 0 0.0941176 0 0 0 0 0.156863 0 0 0 0.08 0"/><feBlend in2="effect1_dropShadow_1182_2296" result="effect2_dropShadow_1182_2296"/><feBlend in="SourceGraphic" in2="effect2_dropShadow_1182_2296" result="shape"/></filter><filter id="e" x="54" y="52" width="72" height="72" filterUnits="userSpaceOnUse" color-interpolation-filters="sRGB"><feFlood flood-opacity="0" result="BackgroundImageFix"/><feGaussianBlur in="BackgroundImageFix" stdDeviation="4"/><feComposite in2="SourceAlpha" operator="in" result="effect1_backgroundBlur_1182_2296"/><feBlend in="SourceGraphic" in2="effect1_backgroundBlur_1182_2296" result="shape"/></filter></defs></svg>