<svg xmlns="http://www.w3.org/2000/svg" data-name="Layer 1" viewBox="0 0 751.131 569.602"><path d="m127.948 451.343-49.742-17.379a170.006 170.006 0 0 1 3.577-81.72c18.87 45.43 77.726 58.132 110.404 94.903a102.26 102.26 0 0 1 23.696 85.409l9.525 36.136a171.354 171.354 0 0 1-122.604-74.521 165.52 165.52 0 0 1-18.324-37.262c21.472-1.523 43.468-5.566 43.468-5.566Z" fill="#f2f2f2"/><path d="M466.126 39.09v397.23l-1.38 16.54a126.31 126.31 0 0 1-34.47 76.58q-4.23 4.425-8.85 8.38a123.197 123.197 0 0 1-11.94 9.09c-2.38 1.6-4.82 3.11-7.3 4.54a125.993 125.993 0 0 1-46.87 15.85h-118.36a38.928 38.928 0 0 1-25.62-9.59 39.509 39.509 0 0 1-8.7-10.8 38.896 38.896 0 0 1-4.76-18.69V39.09A39.14 39.14 0 0 1 236.966 0h190.08c.45 0 .89.01 1.34.02.29.01.58.02.87.05.39.01.78.04 1.16.08.49.03.97.08 1.45.14.44.06.88.12 1.32.19.09.01.17.03.26.04.56.09 1.12.19 1.67.31.55.11 1.11.24 1.65.38.39.1.79.21 1.18.32.01 0 .03.01.04.01 1.15.34 2.29.73 3.41 1.18.35.13.7.28 1.04.43l.15.06c.28.12.55.24.82.37.81.37 1.61.78 2.4 1.21a40.162 40.162 0 0 1 3.77 2.36c.39.27.77.56 1.14.85.31.23.62.47.92.73a.304.304 0 0 1 .07.05c.04.03.08.07.12.1.27.21.53.43.78.65.49.42.97.86 1.44 1.31.13.12.26.24.39.37.13.12.25.25.38.38.13.12.25.25.37.37a1.893 1.893 0 0 1 .2.2c.36.38.71.77 1.05 1.16.43.49.85.99 1.24 1.5.34.42.66.84.97 1.27.29.39.56.78.83 1.18a3.281 3.281 0 0 1 .2.31c.28.41.54.83.8 1.25a38.36 38.36 0 0 1 1.78 3.27c.2.42.39.83.57 1.25.23.51.44 1.02.64 1.53.08.19.15.39.22.58.11.29.21.58.31.87.11.32.22.65.32.97l.24.78a36.346 36.346 0 0 1 .58 2.25 39.063 39.063 0 0 1 .91 6.21c.01.26.03.51.04.77.03.59.04 1.18.04 1.78Z" fill="#3f3d56"/><path d="M195.164 177.968a4.404 4.404 0 0 1-4.399-4.398v-29.913a4.399 4.399 0 1 1 8.798 0v29.912a4.404 4.404 0 0 1-4.4 4.4ZM194.284 119.903a4.404 4.404 0 0 1-4.399-4.399V85.592a4.399 4.399 0 0 1 8.798 0v29.912a4.404 4.404 0 0 1-4.399 4.4Z" fill="#3f3d56"/><path d="M302.294 14.533a4.404 4.404 0 0 1 4.399-4.399h29.912a4.399 4.399 0 0 1 0 8.798h-29.912a4.404 4.404 0 0 1-4.4-4.4Z" fill="#fff"/><path d="M195.164 228.995a4.404 4.404 0 0 1-4.399-4.399v-29.912a4.399 4.399 0 1 1 8.798 0v29.912a4.404 4.404 0 0 1-4.4 4.4ZM469.164 163.995a4.404 4.404 0 0 1-4.399-4.399v-29.912a4.399 4.399 0 1 1 8.798 0v29.912a4.404 4.404 0 0 1-4.4 4.4Z" fill="#3f3d56"/><circle cx="353.321" cy="14.533" r="4.399" fill="#fff"/><path d="M446.67 53.202H217.345a1.016 1.016 0 0 1 0-2.03h229.323a1.016 1.016 0 0 1 0 2.03Z" fill="#fff"/><ellipse cx="234.726" cy="39.905" rx="5.95" ry="6.083" fill="#fff"/><ellipse cx="255.282" cy="39.905" rx="5.95" ry="6.083" fill="#fff"/><ellipse cx="275.838" cy="39.905" rx="5.95" ry="6.083" fill="#fff"/><path d="M434.293 35.33H419.69a1.106 1.106 0 0 0 0 2.21h14.602a1.106 1.106 0 0 0 0-2.21ZM434.293 39.48H419.69a1.106 1.106 0 0 0 0 2.21h14.602a1.106 1.106 0 0 0 0-2.21ZM434.293 43.624H419.69a1.106 1.106 0 0 0 0 2.211h14.602a1.106 1.106 0 0 0 0-2.21Z" fill="#fff"/><path d="M271.97 208.39a9.453 9.453 0 0 0 1.222 4.029 13.635 13.635 0 0 0 6.776 5.62c3.428 1.403 7.25 1.446 10.887 1.133 3.379-.29 6.723-.964 10.114-1.103a70.469 70.469 0 0 1 7.864.188c5.074.36 10.128 1.028 15.149 1.839q2.04.325 4.07.698a2.013 2.013 0 0 1 .379.07c.025.01.064.003.087.017.04.026-.166-.065-.04.038a3.752 3.752 0 0 1 .463.596l1.854 2.387a11.28 11.28 0 0 0 1.713 2.055 3.1 3.1 0 0 0 3.432.24 3.43 3.43 0 0 0 1.277-1.45 12.514 12.514 0 0 1 1.518-2.192c2.206-2.573 5.272-4.156 7.837-6.322a13.958 13.958 0 0 0 3.134-3.583 10.132 10.132 0 0 0 1.295-4.023 13.457 13.457 0 0 0-2.061-8.261 16.503 16.503 0 0 0-6.7-6.132 28.92 28.92 0 0 0-9.98-2.736 90.432 90.432 0 0 0-11.026-.365q-6.183.069-12.344.544-6.17.477-12.29 1.357a107.233 107.233 0 0 0-11.71 2.146 20.214 20.214 0 0 0-9.29 4.747 11.254 11.254 0 0 0-3.63 8.463Z" fill="#e6e6e6"/><path d="M329.142 198.779h-39.018a2.92 2.92 0 0 0-2.917 2.916v.47a2.92 2.92 0 0 0 2.917 2.917h39.018a2.92 2.92 0 0 0 2.916-2.916v-.47a2.92 2.92 0 0 0-2.916-2.917ZM329.142 206.78h-39.018a2.92 2.92 0 0 0-2.917 2.916v.47a2.92 2.92 0 0 0 2.917 2.917h39.018a2.92 2.92 0 0 0 2.916-2.917v-.47a2.92 2.92 0 0 0-2.916-2.917Z" fill="#fff"/><path d="M410.154 150.39a9.453 9.453 0 0 1-1.222 4.029 13.635 13.635 0 0 1-6.777 5.62c-3.428 1.403-7.249 1.446-10.887 1.133-3.378-.29-6.723-.964-10.114-1.103a70.469 70.469 0 0 0-7.863.188c-5.075.36-10.129 1.028-15.15 1.839q-2.04.325-4.07.698a2.013 2.013 0 0 0-.378.07c-.025.01-.065.003-.087.017-.04.026.165-.065.04.038a3.751 3.751 0 0 0-.463.596l-1.855 2.387a11.28 11.28 0 0 1-1.712 2.055 3.1 3.1 0 0 1-3.433.24 3.43 3.43 0 0 1-1.277-1.45 12.514 12.514 0 0 0-1.518-2.192c-2.206-2.573-5.272-4.156-7.836-6.322a13.958 13.958 0 0 1-3.135-3.583 10.132 10.132 0 0 1-1.295-4.023 13.457 13.457 0 0 1 2.062-8.261 16.503 16.503 0 0 1 6.7-6.132 28.92 28.92 0 0 1 9.98-2.736 90.432 90.432 0 0 1 11.026-.365q6.183.069 12.344.544 6.169.477 12.289 1.357a107.233 107.233 0 0 1 11.71 2.146 20.214 20.214 0 0 1 9.29 4.747 11.254 11.254 0 0 1 3.63 8.463Z" fill="#e6e6e6"/><path d="M350.065 143.695v.47a2.92 2.92 0 0 0 2.917 2.917H392a2.92 2.92 0 0 0 2.916-2.916v-.47a2.92 2.92 0 0 0-2.916-2.917h-39.018a2.92 2.92 0 0 0-2.917 2.916ZM350.065 151.696v.47a2.92 2.92 0 0 0 2.917 2.917H392a2.92 2.92 0 0 0 2.916-2.917v-.47a2.92 2.92 0 0 0-2.916-2.917h-39.018a2.92 2.92 0 0 0-2.917 2.917Z" fill="#fff"/><path fill="#a0616a" d="m599.58 555.014-12.39-.001-5.894-47.789 18.286.001-.002 47.789z"/><path d="m599.25 550.965-13.22-5.37-.39-.16-7.3 5.53a15.542 15.542 0 0 0-15.53 14.87c-.02.22-.02.45-.02.68v.51h39.95v-16.06Z" fill="#2f2e41"/><path fill="#a0616a" d="m570.564 543.484-11.687 4.112-21.422-43.124 17.25-6.069 15.859 45.081z"/><path d="m568.91 539.774-14.254-.678-.42-.021-5.051 7.64a15.542 15.542 0 0 0-9.714 19.18c.054.215.13.432.206.649l.17.48 37.685-13.259-5.33-15.15ZM603.958 348.956c11.336-.44-2.706 89.89-2.706 89.89s4.108 79.305 3.237 83.467-.11 15.386-.11 15.386c-2.22-4.042-25.132-.991-25.132-.991l-3.117-80.376-15.913-64.4-22.063 43.168 21.146 66.26s8.563 7.925 7.653 11.056-23.341 10.193-27.463 10.353-2.26-5.072-2.46-10.224-19.596-52.905-26.418-69.153-1.519-39.157 1.964-55.804 21.803-47.889 21.803-47.889c22.742-25.65 58.244 9.696 69.58 9.257Z" fill="#2f2e41"/><path d="M598.072 363.436c-28.11.001-43.601-5.626-51.827-10.65-10.059-6.144-11.78-12.622-11.848-12.895l-.02-.079.979-12.32.428-.959a19.505 19.505 0 0 0 .734-14.007l-.03-.094.007-.1 6.573-85.244 23.26-7.619 6.766-6.799 30.128-.437 4.198 8.51 23.75 8.942-11.668 69.457-5.594 9.641 2.251 10.503-.015.095-7.339 43.8-.403.017q-5.43.243-10.33.238Z" fill="#e6e6e6"/><path d="M609.79 183.559a25.105 25.105 0 0 1-49.751-6.771l.048-.357a25.105 25.105 0 0 1 49.695 7.127Z" fill="#a0616a"/><path d="M603.4 196.49c1.29-2.62 2.614-5.431 2.251-8.327s-3.203-5.665-5.992-4.804c-1.668.514-2.928 2.161-4.672 2.246-2.398.116-3.774-2.63-4.52-4.913l-3.041-9.296a25.154 25.154 0 0 1-20.892 4.72c-2.823-.645-5.676-1.903-7.332-4.28s-1.646-6.061.626-7.858c1.114-.88 2.596-1.216 3.66-2.156a4.102 4.102 0 0 0-3.275-7.138l7.657-.957-2.282-4.126a7.535 7.535 0 0 0 5.992 1.099c2.06-.371 4-1.22 6.016-1.785a23.152 23.152 0 0 1 25.754 10.815 9.802 9.802 0 0 1 10.687 3.086c2.05 2.601 2.607 6.073 2.687 9.384a40.715 40.715 0 0 1-4.15 18.86 15.451 15.451 0 0 1-3.487 4.946 6.978 6.978 0 0 1-5.602 1.832" fill="#2f2e41"/><path d="M319.542 421.793c-.118 0-.236-.002-.356-.007a8.649 8.649 0 0 1-6.954-3.956 97.704 97.704 0 0 0-20.569-22.28c-4.827-3.858-9.87-7.445-14.749-10.915-12.584-8.948-24.435-17.375-31.014-29.02-14.343-25.391 2.549-60.757 26.68-76.618 27.065-17.789 62.666-20.579 97.106-20.945q5.37-.056 10.744-.056a1024.404 1024.404 0 0 1 185.006 16.916c20.293 3.744 41.535 8.33 58.605 19.462 16.969 11.065 27.283 28.49 26.277 44.393-1.47 23.216-26.08 40.563-48.49 45.098-21.36 4.32-43.55 1.4-67.042-1.69-5.187-.683-10.549-1.388-15.852-2.001-57.63-6.662-165.892 13.87-170.472 14.747l-4.544.87-17.632 22.69a8.461 8.461 0 0 1-6.744 3.312Z" fill="#0e9f6e"/><path d="M576.176 308.537H332.593a5.3 5.3 0 0 1 0-10.6h243.583a5.3 5.3 0 0 1 0 10.6ZM576.176 341.068H332.593a5.3 5.3 0 1 1-.011-10.6h243.594a5.3 5.3 0 0 1 0 10.6ZM360.979 373.599h-28.386a5.3 5.3 0 0 1 0-10.6h28.386a5.3 5.3 0 0 1 0 10.6Z" fill="#fff"/><path d="M596.221 391.918a10.755 10.755 0 0 0 5.287-15.62l26.512-94.299-23.261-2.43-18.747 93.456a10.813 10.813 0 0 0 10.21 18.893Z" fill="#a0616a"/><path d="M631.943 230.235s5.677.204 2.87 11.91c-2.246 9.37-10.498 68.158-16.95 79.88a8.449 8.449 0 0 1 1.832 10.194l-25.708-10.603c-2.135-5.928-.482-11.31 1.947-11.786l3.003-17.145 4.427-57.515 24.477-5.156Z" fill="#e6e6e6"/><path d="M492.273 384.262a10.755 10.755 0 0 1 3.757-16.057l27.261-94.085 21.04 10.216-33.413 89.27a10.813 10.813 0 0 1-18.645 10.656Z" fill="#a0616a"/><path d="M547.286 228.086s-4.93-2.824-8.725 8.6c-3.04 9.144-27.064 63.43-27.773 76.79a8.449 8.449 0 0 0-6.937 7.692l27.432 4.565c4.942-3.907 6.38-9.35 4.568-11.038l6.5-16.146 26.602-51.185-18.067-17.3Z" fill="#e6e6e6"/><path d="m749.94 569.295-748.75.307a1.19 1.19 0 0 1 0-2.381l748.75-.307a1.19 1.19 0 0 1 0 2.381Z" fill="#cacaca"/><path d="M321.888 516.45a38.713 38.713 0 1 1 38.713-38.712 38.757 38.757 0 0 1-38.713 38.713Zm0-75.425a36.713 36.713 0 1 0 36.713 36.713 36.755 36.755 0 0 0-36.713-36.713Z" fill="#fff"/><path d="M319.065 492.81c-.08 0-.16-.002-.241-.006a4.932 4.932 0 0 1-3.656-1.9l-6.303-8.102a4.934 4.934 0 0 1 .865-6.925l.227-.177a4.933 4.933 0 0 1 6.926.866 3.599 3.599 0 0 0 5.45.265l12.797-13.51a4.941 4.941 0 0 1 6.976-.189l.21.2a4.933 4.933 0 0 1 .188 6.976l-19.858 20.96a4.929 4.929 0 0 1-3.581 1.542Z" fill="#0e9f6e"/></svg>