<svg xmlns="http://www.w3.org/2000/svg" data-name="Layer 1" viewBox="0 0 807.453 499.984"><path data-name="Path 461" d="M56.035 463.158a22.728 22.728 0 0 0 21.947-3.866c7.687-6.452 10.1-17.081 12.058-26.924l5.8-29.112-12.143 8.362c-8.733 6.013-17.662 12.219-23.71 20.929s-8.685 20.6-3.827 30.024" fill="#e6e6e6"/><path data-name="Path 462" d="M57.073 498.404c-1.23-8.953-2.493-18.02-1.631-27.07.766-8.035 3.217-15.884 8.209-22.32a37.131 37.131 0 0 1 9.527-8.633c.953-.6 1.829.909.88 1.507a35.3 35.3 0 0 0-13.962 16.847c-3.04 7.732-3.528 16.16-3 24.374.317 4.967.988 9.9 1.665 14.83a.9.9 0 0 1-.61 1.074.878.878 0 0 1-1.074-.61Z" fill="#f2f2f2"/><path d="M300.6 305.518a6.94 6.94 0 0 1-2.85.67l-91.607 2.515a14.38 14.38 0 0 1-.625-28.753l91.607-2.514a7.007 7.007 0 0 1 7.15 6.846l.321 14.756a7.017 7.017 0 0 1-3.995 6.48ZM183.058 498.59h-14.76a7.008 7.008 0 0 1-7-7V368.576a7.008 7.008 0 0 1 7-7h14.76a7.008 7.008 0 0 1 7 7V491.59a7.008 7.008 0 0 1-7 7ZM222.25 498.59h-14.759a7.008 7.008 0 0 1-7-7V368.576a7.008 7.008 0 0 1 7-7h14.76a7.008 7.008 0 0 1 7 7V491.59a7.008 7.008 0 0 1-7 7Z" fill="#0e9f6e"/><circle cx="196.716" cy="182.697" r="51" fill="#0e9f6e"/><path d="M214.027 405.197h-36.69a43.277 43.277 0 0 1-37.56-65.057l51.31-88.87a6.5 6.5 0 0 1 11.258 0l50.276 87.08a44.564 44.564 0 0 1-38.594 66.847ZM208.753 204.106c3.306-.092 7.42-.206 10.59-2.522a8.133 8.133 0 0 0 3.2-6.073 5.47 5.47 0 0 0-1.86-4.493c-1.656-1.399-4.073-1.727-6.678-.961l2.699-19.726-1.981-.271-3.174 23.19 1.655-.76c1.918-.88 4.552-1.327 6.188.056a3.515 3.515 0 0 1 1.153 2.895 6.147 6.147 0 0 1-2.382 4.528c-2.466 1.802-5.746 2.034-9.465 2.138ZM226.503 172.032h10.772v2h-10.772zM192.503 172.032h10.772v2h-10.772z" fill="#2f2e41"/><path d="M184.72 393.79a6.94 6.94 0 0 1-.67-2.85l-2.515-91.607a14.38 14.38 0 0 1 28.752-.625l2.514 91.607a7.007 7.007 0 0 1-6.845 7.15l-14.756.321a7.017 7.017 0 0 1-6.48-3.995Z" fill="#0e9f6e"/><path d="M191.984 144.998c6.196 8.103 16.033 13.539 26.43 12.252 9.9-1.226 18.067-8.126 20.116-18.006a29.67 29.67 0 0 0-7.796-26.19c-7.008-7.37-17.037-11.335-26.964-12.695-18.804-2.575-38.117 4.049-52.335 16.403a64.11 64.11 0 0 0-16.692 22.375 62.723 62.723 0 0 0-5.175 27.077c.546 18.375 8.595 36.715 22.482 48.901a63.377 63.377 0 0 0 5.409 4.236c1.583 1.111 3.084-1.489 1.514-2.59-14.222-9.977-23.294-26.211-25.784-43.269a59.924 59.924 0 0 1 14.053-48.34c11.484-13.058 28.323-21.545 45.763-22.305 17.549-.766 39.48 7.07 42.763 26.604 1.472 8.756-1.801 17.96-9.825 22.343-8.59 4.693-19.124 2.762-26.506-3.3a30.448 30.448 0 0 1-4.863-5.01c-1.157-1.514-3.764-.021-2.59 1.514Z" fill="#2f2e41"/><path data-name="ab2e16f2-9798-47da-b25d-769524f3c86f" fill="#f1f1f1" d="m275.35 74.343 432.704-62.507 29.661 205.326-432.703 62.507z"/><path data-name="bf81c03f-68cf-4889-8697-1102f95f97bb" fill="#fff" d="M290.267 90.164 698.225 31.23l24.747 171.309-407.958 58.932z"/><path data-name="f065dccc-d150-492a-a09f-a7f3f89523f0" fill="#e5e5e5" d="M273.452 62.507 706.156 0l2.655 18.382L276.108 80.89z"/><circle data-name="bdbbf39c-df25-4682-8b85-5a6af4a1bd14" cx="288.675" cy="71.343" r="3.442" fill="#fff"/><circle data-name="abcd4292-0b1f-4102-9b5e-e8bbd87baabc" cx="301.607" cy="69.475" r="3.442" fill="#fff"/><circle data-name="a3fb731e-8b3d-41ca-96f2-91600dc0b434" cx="314.54" cy="67.607" r="3.442" fill="#fff"/><path data-name="ab2e16f2-9798-47da-b25d-769524f3c86f" fill="#e6e6e6" d="M370.258 100.183h437.195V307.64H370.258z"/><path data-name="bf81c03f-68cf-4889-8697-1102f95f97bb" fill="#fff" d="M382.76 117.973h412.192V291.06H382.76z"/><path data-name="f065dccc-d150-492a-a09f-a7f3f89523f0" fill="#cbcbcb" d="M370.072 88.197h437.195v18.573H370.072z"/><circle data-name="bdbbf39c-df25-4682-8b85-5a6af4a1bd14" cx="383.874" cy="99.119" r="3.442" fill="#fff"/><circle data-name="abcd4292-0b1f-4102-9b5e-e8bbd87baabc" cx="396.94" cy="99.119" r="3.442" fill="#fff"/><circle data-name="a3fb731e-8b3d-41ca-96f2-91600dc0b434" cx="410.008" cy="99.119" r="3.442" fill="#fff"/><path fill="#e6e6e6" d="M620.277 144.289h58.052v4.363h-58.052zM620.277 157.098h89.645v4.363h-89.645zM621.209 169.297h73.059v4.363h-73.059zM620.277 182.682h42.651v4.363h-42.651zM620.277 195.757h64.371v4.363h-64.371zM593.818 142.916h7.108v7.108h-7.108zM593.818 155.725h7.108v7.108h-7.108zM593.818 167.924h7.108v7.108h-7.108zM593.818 181.31h7.108v7.108h-7.108zM593.818 194.384h7.108v7.108h-7.108zM620.277 208.913h58.052v4.363h-58.052zM620.277 221.722h89.645v4.363h-89.645zM621.209 233.921h73.059v4.363h-73.059zM620.277 247.307h42.651v4.363h-42.651zM620.277 260.381h64.371v4.363h-64.371zM593.818 207.541h7.108v7.108h-7.108zM593.818 220.35h7.108v7.108h-7.108zM593.818 232.549h7.108v7.108h-7.108zM593.818 245.934h7.108v7.108h-7.108zM593.818 259.009h7.108v7.108h-7.108zM436.63 243.139h58.052v4.363H436.63zM428.863 254.477h73.059v4.363h-73.059zM503.387 188.098a37.919 37.919 0 0 1-55.878 33.382l-.007-.008a37.907 37.907 0 1 1 55.885-33.374Z"/><circle cx="465.676" cy="175.953" r="10.304" fill="#fff"/><path d="M483.27 207.549a53.11 53.11 0 0 1-35.568-.138l-.007-.005 7.676-15.153h20.609Z" fill="#fff"/><path d="M351.59 282.185c-17.96 0-32.572-15.522-32.572-34.6 0-19.08 14.612-34.6 32.572-34.6s32.572 15.52 32.572 34.6c0 19.078-14.612 34.6-32.572 34.6Zm0-60.458c-13.14 0-23.83 11.6-23.83 25.857s10.69 25.858 23.83 25.858 23.83-11.6 23.83-25.858-10.69-25.857-23.83-25.857Z" fill="#0e9f6e"/><path d="M382.434 342.484h-61.688a20.541 20.541 0 0 1-20.519-20.518v-60.51a14.064 14.064 0 0 1 14.047-14.048h74.631a14.064 14.064 0 0 1 14.048 14.048v60.51a20.541 20.541 0 0 1-20.519 20.518Z" fill="#3f3d56"/><path d="M363.611 281.832a12.021 12.021 0 1 0-17.485 10.699v18.808h10.928V292.53a12.01 12.01 0 0 0 6.557-10.699Z" fill="#fff"/><path d="M382 499.984H1a1 1 0 0 1 0-2h381a1 1 0 0 1 0 2Z" fill="#3f3d56"/></svg>
